<svg width="152" height="152" fill="none" xmlns="http://www.w3.org/2000/svg"><path fill="#81B3D3" d="M0 0h152v152H0z"/><path d="m52.3 93.4.1.3.3.1c2.8 3 5.9 6 9.4 8.6 3.4 2.5 7.4 3.9 12 4.1l.2.2h.5l.3.1h1.7c.5 0 1-.2 1.3-.3 1.7-.3 3.2-1 4.6-1.8 1.6-1 2.7-2 3.6-3.4l.3-.6.3-.6a18.2 18.2 0 0 0 .6-3.7c0-2.7-1.2-5-3.7-6.9A26.3 26.3 0 0 0 73 84.2l-2.9-.8h-.3l-.3-.1c-5-1.2-9.7-3.2-14-5.8a21 21 0 0 1-9.1-11.8l-1-3.2a36.6 36.6 0 0 1-.6-4.6v-3.7l.5-2.4c.3-2.1.8-4.2 1.5-6.2.8-2 1.7-3.8 2.8-5.5 3.3-5.4 7.5-9.2 12.6-11.6a39.1 39.1 0 0 1 24.5-2.7 58.5 58.5 0 0 1 21 8.1L99 52.7a59 59 0 0 0-8.7-5.4 22 22 0 0 0-10-2.3h-1.2c-2.3.3-4.5 1.4-6.6 3.2-2 1.8-3 3.7-3 5.7v1l.4.8c.2.8.6 1.4 1.1 2a13.2 13.2 0 0 0 6.6 4.3 267 267 0 0 0 17 4.9c5.7 2 10 5.5 12.9 10.2 2.8 4.7 4.3 9.7 4.4 15v.8c0 .6 0 1.2-.2 1.8v1.7a37.7 37.7 0 0 1-5.2 15.2A28.3 28.3 0 0 1 90 124.7l-5.5 1.4c-1.5.3-3 .5-4.6.6l-4.5.3H74a51.5 51.5 0 0 1-34-14l12.3-19.6Z" fill="#fff"/></svg>