<svg width="282" height="214" fill="none" xmlns="http://www.w3.org/2000/svg"><path d="m101.4 42.8-.1.1c-.9 1-1.9 1.4-2.8 1.4l1.7-3c1.1-2 0-3.8-1.6-3.8-1.4 0-2.6.6-3.6 2.4l-1 1.6-.7 1.3v.1c-1.4 1.6-2.7 2.8-3.5 2.8-.4 0-.6-.3-.2-1l4-6.8H95l.6-.9H94l1.7-3H94l-1.7 3h-1.7l-.5.9h1.6L88 44.2c-.8 1.4-.2 2.6 1.3 2.6 1 0 2.2-.8 3.3-1.9 0 2.4 3.3 2.9 5.3.4h.4c1.1 0 2.8-.7 3.7-1.8 0-.3-.3-.6-.5-.7Zm-4 .1a1.1 1.1 0 0 0-1 1.7v.1c-.8 1.5-2.9 1.2-1.8-.7l1.4-2.4.8-1.5c1.3-2.2 3.1-1.3 2 .6l-1.3 2.2Zm29.5-.1-.2.1c-1.3 1.6-3 2.8-4.3 2.8-1 0-1.7-.8-1-2.2l.2-.3c1.2.5 3.5.2 4.8-2.2l.3-.4c1-1.7 0-3-1.5-3s-2.6.9-3.4 2.2l-1.8 3-.1.2c-1.4 1.5-2.7 2.7-3.5 2.7-.4 0-.6-.3-.2-1l2.7-4.6c.8-1.4 0-2.4-1-2.4-.8 0-1.7.5-2.6 1.4l3-5h-1.9l-5 8.7-.2.1c-1.3 1.6-2.6 2.8-3.4 2.8-.5 0-.6-.3-.2-1l4-6.8h1.4l.5-1H112l1.7-2.9H112l-1.7 3h-1.7l-.5.9h1.6l-3.7 6.3c-.8 1.4-.2 2.6 1.3 2.6a4 4 0 0 0 2.3-1l-.5.9h1.8l2.8-4.9c2.8-3.5 4-3 3.3-1.7l-2.4 4.2c-.8 1.3-.2 2.6 1.2 2.6 1.2 0 2.4-.9 3.5-2 0 1.2 1 2 2.5 2 2 0 4.2-1.6 5.6-3.4.1-.3-.2-.6-.4-.7Zm-3.5-2.6c1-1.8 2.9-1.5 1.8.4l-.2.4c-1 1.5-2.1 1.5-2.8 1.3l1.2-2Zm70.4 2.6-.1.1c-.7.8-1.5 1.5-2.2 2 .6-1.7.4-4.4 1.6-6.7l-1.4-.8-4 5.4-.2.1c-1.4 1.6-2.7 2.8-3.4 2.8-.5 0-.7-.3-.2-1l3.9-6.8H186l-3.3 5.6c-1.4 1.3-2.5 2-2.8 1.9-.5-.2 0-.9.2-1.3l3.6-6.2h-1.9l-2.8 4.9-.2.1c-.8 1-1.8 1.4-2.7 1.4l1.7-3c1.1-2 0-3.8-1.7-3.8-1.4 0-2.5.6-3.5 2.4l-1 1.6-.7 1.3-.1.1c-1.4 1.6-3 2.8-4.3 2.8-1.1 0-1.8-.8-1-2.2l.2-.3c1.2.5 3.4.2 4.8-2.2l.2-.4c1-1.7.1-3-1.4-3s-2.7.9-3.5 2.2l-1.8 3v.2a11.8 11.8 0 0 1-4.4 3.5l4.1-7h-1c0-.8-.9-1.8-2-1.8-1 0-2.4.8-3.1 2.1l-1.8 3-.1.2c-1.4 1.5-2.6 2.7-3.4 2.7-.5 0-.7-.3-.2-1l1.8-3.1c.6-1.1.3-1.8-.2-2.5l-1-1.2c-.3-.4-.3-.8 0-1l-1-1.1c-1 .9-1 2-.4 2.8l.2.2c-.8 1.1-2 2.7-3.2 4v.2c-1 1-2 1.3-2.9 1.3l1.8-3c1-1.9 0-3.7-1.7-3.7-1.4 0-2.5.6-3.5 2.4l-1 1.6-.7 1.3h-.1a11.8 11.8 0 0 1-4.3 3.6l4-7h-1c0-.8-.8-1.8-2-1.8-.9 0-2.3.8-3 2.1l-2.6 4.5c-.8 1.3-.3 2.6 1.2 2.6.5 0 1.1-.2 1.8-.6l-.5.8c-2.5.8-4 1.8-4 3.2 0 1.7 2.6 2.1 4-.2l1.4-2.3c1.5-.5 2.9-1.4 4.4-2.8 0 2.3 3.3 2.8 5.2.3h.5c1 0 2.8-.7 3.7-1.8.9-1 1.6-2 3-3.9l.3.3c.3.3.3.7.1 1l-2 3.4c-.7 1.4-.2 2.7 1.3 2.7 1 0 2-.6 3-1.5 0 .9.5 1.5 1.6 1.5.4 0 1-.3 1.7-.6l-.4.7c-2.5.7-4 1.8-4 3.1 0 1.8 2.7 2.1 4-.1l1.4-2.4c1.5-.5 3-1.3 4.5-2.8 0 1.1 1 2 2.5 2s3-1 4.2-2c0 2.4 3.3 2.9 5.3.4h.4c.5 0 1.3-.2 2-.6-.5 1.3 0 2.1 1 2.1s2.1-.9 3-1.7c-.2 1 .4 1.7 1.6 1.7 1.5 0 3.3-1.5 4.8-3.3l2.6-3.4c-.7 2-.3 5.3-2 5.3-.7 0-1-.6-1-.6l-1 .6a2 2 0 0 0 2 1.4h.4c2-.3 3.8-1.7 5.2-3.3a1 1 0 0 0-.7-.7Zm-26.3-2.6c1-1.8 3-1.5 1.8.4l-.2.4c-.9 1.5-2.1 1.5-2.8 1.3l1.2-2Zm-35.1 9.6c-.4.6-1 .6-1 0 0-.5.4-1 1.8-1.6l-.8 1.6Zm.8-4.1c-.4 0-.6-.3-.1-1l2.5-4.5c1-1.7 3-1.2 2 .4l-1.4 2.4c-1 1.8-2.2 2.7-3 2.7Zm11.3-2.8a1.1 1.1 0 0 0-1 1.7v.1c-.8 1.5-2.9 1.2-1.9-.7l1.5-2.4.8-1.5c1.3-2.2 3-1.3 2 .6l-1.4 2.2Zm11.6 6.9c-.4.6-1 .6-1 0 0-.5.4-1 1.8-1.6l-.8 1.6Zm.8-4.1c-.4 0-.6-.3-.2-1l2.6-4.5c1-1.7 3-1.2 2 .4L160 43c-1 1.8-2.2 2.7-3 2.7Zm18.1-2.8a1.1 1.1 0 0 0-1 1.7v.1c-.8 1.5-2.9 1.2-1.9-.7l1.5-2.4.8-1.5c1.3-2.2 3-1.3 2 .6l-1.4 2.2Zm-95.2-2.1H62.1v1.3h17.7v-1.3Zm139.4 0h-17.8v1.3h17.8v-1.3Z" fill="#766458"/><path d="M100 0h4.8l-.8 27.5h-8.9L94 16l-1.2 11.4h-9L83 0h4.7l.4 22.7h.5l3-22.7h4.6l3 22.7h.5L100 0Zm19.6 22.7v4.8h-12.9V0h12.9v4.7h-8.2v6.6h6.5V16h-6.5v6.7h8.2Zm13.1 0v4.8h-11.2V0h4.6v22.7h6.6Zm9.9-5.3 4.8-1.1v8.3a3 3 0 0 1-3 2.9h-7a3 3 0 0 1-2.9-3V3c0-1.6 1.3-2.9 3-2.9h7a3 3 0 0 1 2.9 2.9v5.5l-4.8 1.1v-5h-3.3v18h3.3v-5.2ZM160.1 0a3 3 0 0 1 2.9 2.9v21.6a3 3 0 0 1-2.9 2.9h-7a3 3 0 0 1-3-2.9V3c0-1.6 1.4-2.9 3-2.9h7Zm-1.8 4.7h-3.4v18h3.4v-18Zm20-4.7h4.7v27.5h-4.7V13.9l-1.9 7h-4.6l-1.8-7v13.6h-4.7V0h4.7l4.2 13.3L178.3 0Zm19.9 22.7v4.8h-12.9V0h12.9v4.7H190v6.6h6.5V16H190v6.7h8.2Z" fill="#81B3D3"/><path d="M27.2 96.4c-2.2-1.9-5-3-8-3-2.1 0-5 1.2-5 3.8 0 2.7 3.2 3.7 5.3 4.3l3 1c6.4 1.8 11.4 5 11.4 12.4 0 4.5-1.1 9.2-4.7 12.3a20 20 0 0 1-13 4.3c-5.8 0-11.5-2-16.2-5.2l5-9.5c3 2.6 6.5 4.7 10.6 4.7 2.8 0 5.8-1.4 5.8-4.6 0-3.3-4.7-4.4-7.3-5.2-7.5-2.2-12.4-4-12.4-13 0-9.2 6.6-15.3 15.9-15.3 4.6 0 10.3 1.5 14.3 3.8l-4.7 9.2Zm29-1.7v7.6h13.5v10H56.2v8h14.3v10H44.3V84.7h26.2v10.1H56.2Zm23.1-10.1h17a23 23 0 0 1 23.3 22.9 23 23 0 0 1-23.4 22.9h-17V84.6Zm12 35.7H94c7 0 13.2-4 13.2-12.8 0-8.2-5.4-12.8-13.1-12.8h-2.8v25.6Zm84.7-13.7a24.4 24.4 0 0 1-25.5 25.3 24.4 24.4 0 0 1-25.4-25.3c0-13.8 12.2-23.5 25.4-23.5s25.5 9.7 25.5 23.5Zm-38.5.1c0 7.9 5.9 13.6 13 13.6s13-5.7 13-13.6c0-6.3-5.9-12.1-13-12.1-7 0-13 5.8-13 12.1Zm44.8-22.1h12l21.8 28h.1v-28h12v45.8h-12l-21.8-28.1h-.2v28h-12V84.7Zm67.5 37.8-3.2 8H234l17.7-45.8h13l17.3 45.8h-12.7l-3-8h-16.5Zm8.4-23.6h-.1l-5 14.5h10l-5-14.5ZM66.2 176c4.7-1.7 5-7.5.4-7.5-1.2 0-2.8.9-3.8 2.7L56.5 182c-.3.5-.5.9-.9 1.3-1.6-2.2-1.2-5.5 1.1-7l-1-1.1c-4.8 3.1-3.4 12 4.8 12 7 0 10.2-8.3 5.7-11.3Zm-5.7 9.5c-1.5 0-2.5-.3-3.4-.8.4-.5.8-1 1.1-1.7l4-6.8h.6c5.4 1.3 3.3 9.3-2.3 9.3Zm2.5-10.6 1.9-3.3c1.7-2.9 3.8-1.2 2.7 1-1 1.7-2.2 2.2-4.6 2.3Z" fill="#fff"/><path d="M86 183.4c-.4 1.4.3 2.6 1.8 2.6 1 0 2.1-.7 3.3-1.6.1 1 .8 1.6 2 1.6s2.6-.9 4-2.1c-.3 1.2.2 2 1.4 2 1.3 0 2.7-1.1 3.8-2.1-.2 1.2.5 2.2 2 2.2 1.9 0 4-2.1 6-4.3v-.1c1.3-1.5 2.4-3.1 3.2-4.2-.9 2.4-.4 6.7-2.6 6.7-.8 0-1.1-.8-1.1-.8l-1.5.7s.5 1.9 2.6 1.9h.7a9.9 9.9 0 0 0 4.9-2.6c0 1.5 1.2 2.6 3.1 2.6 2.7 0 5.3-2 7.2-4.3-.2-.3-.6-.7-.9-.8l-.2.2c-1.6 2-3.8 3.5-5.4 3.5-1.4 0-2.3-1-1.2-2.8l.2-.4c1.5.6 4.3.3 6-2.7l.4-.5c1.2-2.2 0-3.8-1.9-3.8s-3.3 1-4.3 2.7l-2.3 3.9-.2.2c-.9 1-2 1.9-2.8 2.5.7-2.2.5-5.7 2-8.6l-1.7-1c-1 1.4-3.1 4.4-5.2 6.9v.2c-1.7 2-3.3 3.4-4.4 3.4-.4 0-.8-.3-.2-1.2l5-8.7h-2.4l-4 7.2c-1.9 1.6-3.2 2.5-3.6 2.3-.6-.2 0-1 .3-1.6l4.5-7.9h-2.3l-3.7 6.4-.2-.1-.2.2c-1.6 2-3.3 3.4-4.3 3.4-.5 0-.8-.3-.3-1.2l3.8-6.6h-1.4c0-1-.9-2.3-2.4-2.3-1.3 0-3 1-4 2.7l-2.4 4-.3-.2-.2.2c-1.7 2-3.8 3.4-5.5 3.4-1.4 0-2.2-.9-1.2-2.7l2.4-4.2c1.3-2.3 3.7-1.9 2.3.5l-.3.6h2l.2-.6c1.3-2.1 0-3.7-1.8-3.7-2 0-3.4 1-4.4 2.7l-2.3 4-.2-.2-.2.2c-1.6 2-3.8 3.5-5.4 3.5-1.4 0-2.3-1-1.3-2.7l.3-.5c1.5.6 4.3.3 6-2.7l.4-.5c1.2-2.2 0-3.7-1.9-3.7s-3.3 1-4.3 2.7l-2.5 4.1c-1.5 2.5-.2 4.8 2.6 4.8 2 0 4.1-1.2 5.8-2.8-.1 1.6 1.1 2.8 3.1 2.8 2-.1 3.9-1.2 5.5-2.7Zm35.5-5.8c1.4-2.3 3.8-2 2.3.5l-.3.5c-1 2-2.6 1.9-3.5 1.5l1.5-2.5Zm-33.2 5.7 3.2-5.7c1.2-2.1 3.7-1.6 2.6.5l-1.9 3.2c-1.4 2.2-2.8 3.2-3.7 3.2-.5 0-.8-.3-.2-1.2Zm-14.9-5.7c1.4-2.3 3.7-2 2.3.5l-.3.5c-1 2-2.6 1.9-3.5 1.5l1.5-2.5Zm78.9 8.4c2.7 0 5.3-2.1 7.2-4.3-.2-.3-.5-.7-.9-.8l-.1.2c-1.7 2-3.8 3.4-5.5 3.4-1.4 0-2.3-.9-1.2-2.7l.2-.4c1.5.6 4.3.3 6-2.7l.4-.6c1.2-2.1 0-3.7-1.8-3.7-2 0-3.4 1-4.4 2.7l-2.3 3.8-.2.2c-1.7 2-3.3 3.4-4.4 3.4-.5 0-.8-.3-.2-1.2l3.4-6c1-1.7 0-3-1.3-3-1 0-2 .6-3.2 1.8l3.7-6.4h-2.4l-6.5 11.3-.3-.2-.2.2c-1.6 2-3.3 3.5-4.3 3.5-.5 0-.8-.4-.3-1.3l5-8.7h1.9l.7-1h-2l2.3-3.9h-2.3l-2.3 3.8h-2l-.7 1.1h2.1l-4.6 8c-1 1.8-.3 3.4 1.6 3.4 1.1 0 2.4-.7 3.6-1.8l-.9 1.5h2.4l3.5-6c3.6-4.5 5.2-4 4.2-2.3l-3 5.3c-1 1.7-.3 3.3 1.6 3.3 1.4 0 3-1.1 4.5-2.6 0 1.6 1.1 2.7 3 2.7Zm2-8.4c1.3-2.3 3.7-2 2.3.5l-.3.5c-1.2 2-2.7 1.9-3.5 1.5l1.4-2.5Zm68.6 3.3-.2.2c-1.6 2-3.3 3.4-4.3 3.4-.5 0-.8-.3-.3-1.2l7.9-13.6h-2.4l-3.4 5.9a2.5 2.5 0 0 0-2.1-1.3c-1.3 0-3 1-4 2.7l-2.3 4-.1-.1-.2.2c-1.7 2-3.3 3.4-4.4 3.4-.5 0-.8-.3-.2-1.2l3.4-6c1-1.7 0-3-1.3-3-1 0-2 .6-3.2 1.7l.8-1.5h-2.3l-3.7 6.4h-.3l-.2.1c-1.6 2-3.3 3.5-4.3 3.5-.5 0-.8-.4-.3-1.3l3.8-6.5H198c0-1-1-2.4-2.4-2.4-1.3 0-3 1-4 2.7l-2.3 3.9-.1.1c-1.7 2-3.3 3.5-4.4 3.5-.5 0-.8-.4-.2-1.3l2.3-4c.8-1.4.4-2.2-.3-3.2l-1.3-1.5c-.3-.5-.3-1 .1-1.4l-1.2-1.3c-1.4 1.1-1.4 2.5-.6 3.5l.2.3c-1 1.4-2.4 3.4-4 5.2l.2.1a15.4 15.4 0 0 1-5.4 4.4l3-5h-2.3l-.2.5c-1.3 2.1-2.7 3.7-4.5 3.7-1.6 0-2-1.6-.5-4l.7-1.2 1.3.2c8.3 0 12.3-11 5-11-1.3 0-2.8.8-3.9 2.6l-3.6 6.2c-1.4-.7-2.1-2-2.1-3.3 0-1 .5-2.1 1.5-3l-.8-1.3a5.2 5.2 0 0 0-2.4 4.4c0 1.8 1 3.6 3 4.6l-.7 1.2c-1.6 2.8-1.3 6 2 6 1 0 1.8-.4 2.5-.8l-.6 1c-3.1 1-5.1 2.2-5.1 4 0 2.2 3.4 2.7 5-.2l1.9-3c2.4-.8 4.8-2.4 7.3-5.4v-.3l3.6-4.7.3.3c.3.4.4.9.1 1.4l-2.4 4.3c-1 1.7-.3 3.3 1.6 3.3 1.1 0 2.4-.8 3.6-1.9 0 1 .7 1.9 2 1.9 1 0 2.2-.6 3.3-1.6.1 1 .9 1.6 2 1.6s2.4-.7 3.5-1.7l-.8 1.4h2.3l3.6-6.2c3.5-4.4 5.1-3.8 4-2l-3 5.2c-.9 1.7-.2 3.3 1.7 3.3 1.2 0 2.6-.9 3.9-2-.1 1.1.6 2 2 2 1 0 2.1-.6 3.3-1.6.1 1 .8 1.6 2 1.6 2 0 4.1-2.1 6-4.3l-.9-.6Zm-47.8-8.7c.7-1.2 1.5-1.7 2-1.7 3.8 0 1.2 7.5-4.9 7.5h-.5l3.4-5.8Zm-5 17.5c-.5.8-1.3.7-1.3.1s.6-1.3 2.4-2l-1 1.9Zm24.4-8.5c-1.4 2.2-2.8 3.3-3.8 3.3-.4 0-.8-.4-.2-1.3l3.2-5.6c1.3-2.2 3.8-1.6 2.6.5l-1.8 3.1Zm22.5 0c-1.4 2.2-2.8 3.3-3.8 3.3-.5 0-.8-.4-.2-1.3l3.2-5.6c1.2-2.2 3.8-1.6 2.6.5l-1.8 3Zm-71.9 21.7-.1.2c-1.7 2-3.4 3.5-4.4 3.5-.5 0-.8-.4-.2-1.3l3.3-5.9c1-1.8 0-3-1.2-3-1 0-2 .5-3.2 1.7l.8-1.6h-2.3L134 203l-.3-.2-.2.2a4.8 4.8 0 0 1-3.5 1.7l2.3-3.8c1.4-2.4 0-4.7-2.1-4.7-1.8 0-3.2.8-4.6 3l-1.1 2-1 1.8-.2-.2-.2.2a15.5 15.5 0 0 1-5.4 4.4l6.4-10.9h-2.3l-4.2 7.2c-1.7 1.6-3.1 2.6-3.6 2.4-.5-.3 0-1.1.3-1.6l4.6-8h-2.4l-3.7 6.5-.2-.1-.2.2c-1.6 2-3.3 3.5-4.3 3.5-.5 0-.8-.4-.3-1.3l3.4-5.9c1-1.8 0-3-1.2-3-1 0-2.1.5-3.3 1.7l.9-1.6h-2.3l-3.8 6.5-.2-.2-.2.2c-1.7 2-3.3 3.5-4.4 3.5-.5 0-.8-.4-.2-1.3l3.7-6.5H99c0-1-1-2.3-2.5-2.3-1.2 0-3 1-4 2.6l-2.4 4.2-.5-.3-.1.2c-1.7 2-3.8 3.5-6 3.5-1.7 0-2.6-1.6-1.2-4l.7-1.2 1.3.1c2.5 0 5.3-1.2 7.1-4.4.7-1.2 1-2.2 1-3.1 0-2.1-1.4-3.5-3.1-3.5-1.3 0-2.9.9-3.9 2.7l-3.6 6.2c-1.4-.7-2.1-2-2.1-3.3 0-1.1.5-2.1 1.5-3l-.8-1.3a5.2 5.2 0 0 0-2.4 4.4c0 1.8 1 3.6 3 4.6l-.7 1.2c-1.6 2.8-.7 6 2.7 6 2.5 0 4.5-1.3 6-2.8-.4 1.5.3 2.7 2 2.7 1 0 2-.6 3.2-1.5.2.9.9 1.5 2 1.5 1.2 0 2.4-.7 3.6-1.7l-.9 1.5h2.3l3.6-6.2c3.6-4.5 5.2-3.9 4.1-2.2l-3 5.3c-1 1.7-.3 3.3 1.6 3.3 1.2 0 2.6-.8 4-2-.3 1.2.3 2 1.5 2 1 0 2.4-1 3.4-1.9l-1.3 2.2c-3.1 1-5.1 2.2-5.1 4 0 2.2 3.4 2.7 5-.2l1.8-3a15 15 0 0 0 6-3.8c-.4 3.2 4 4 6.5.6h.5c.9 0 2-.3 3.1-.9l-1.5 2.7h2.3l3.6-6.2c3.5-4.4 5.1-3.8 4-2.1l-3 5.2c-1 1.8-.2 3.3 1.7 3.3s4-2 6-4.2c0-.2-.5-.6-.8-.7Zm-57.9-8.7c.7-1.2 1.5-1.7 2.1-1.7.9 0 1.3.5 1.3 1.4 0 2.1-2.7 6-6.3 6h-.5l3.4-5.7Zm8.2 9c-1.4 2.3-2.8 3.3-3.7 3.3-.5 0-.8-.4-.3-1.3l3.3-5.6c1.2-2.2 3.7-1.6 2.6.5l-1.9 3.2Zm17.7 8.5c-.5.9-1.3.7-1.3.1s.6-1.3 2.4-2l-1 1.9Zm15.7-8.7h-.1c-.7 0-1.4.6-1.4 1.4 0 .3.1.6.3.8-1.1 2-3.8 1.6-2.4-.8l1.8-3.1 1-1.9c1.7-2.7 4-1.6 2.5.7l-1.7 3Zm70.2.7c0-.4-.5-.7-.8-.8l-.2.2c-.8 1-1.9 1.9-2.8 2.5.8-2.2.6-5.6 2-8.6l-1.7-.9c-1 1.4-3 4.3-5.1 6.8l-.2.2c-1.7 2-3.3 3.5-4.4 3.5-.5 0-1-.5-1-1.6v-1c1.7.2 3.4-.9 4.5-2.8l.6-1c2.2-3.8-1.3-5-3.7-2.8l3.3-5.8h-2.3l-6.6 11.5c-.2 0-.4-.2-.5-.3l-.2.2c-1.6 2-3.8 3.5-5.4 3.5-1.4 0-2.3-1-1.2-2.8l2.3-4.1c1.4-2.3 3.8-1.9 2.4.5l-.3.5h1.9l.3-.5c1.2-2.2 0-3.7-1.9-3.7s-3.3 1-4.3 2.6l-2.3 4-.1-.1-.2.2c-1.7 2-3.3 3.5-4.4 3.5-.4 0-.8-.4-.2-1.3l5-8.7H169l-4 7.2c-1.9 1.6-3.2 2.5-3.6 2.3-.6-.2 0-1 .3-1.6l4.5-7.8H164l-4.6 7.7-1.4 1.2c.7-2.2.5-5.6 2-8.5l-1.7-1c-1 1.4-6.3 8.5-8.5 11 .2.3.6.5.9.7l6.5-8.3c-.9 2.4-.4 6.8-2.6 6.8-.8 0-1.1-.9-1.1-.9l-1.5.7s.4 2 2.6 2l.7-.1a8 8 0 0 0 3.5-1.5c0 1 .5 1.5 1.5 1.5 1.3 0 2.7-1.1 3.8-2.2-.2 1.3.5 2.2 2 2.2 1.4 0 3-1.1 4.6-2.7 0 1.6 1.2 2.7 3.1 2.7 2 0 3.7-1 5.4-2.4l-1.3 2.2h2.3l2.7-4.5v1.8c0 2 .4 3 2.3 3s4-2 6-4.3c1.4-1.5 2.5-3.1 3.3-4.2-.9 2.4-.4 6.7-2.6 6.7-.8 0-1.1-.8-1.1-.8l-1.5.7s.5 1.9 2.6 1.9h.7c2.4-.5 4.8-2.4 6.5-4.4Zm-15.4-1.8.7-1.2c2.7-3.7 4.5-2.7 3.7-1.3l-1.1 1.9c-.7 1.2-2.7 2-3.3.6Zm15.4 3.4a1.3 1.3 0 1 0 0 2.7c.8 0 1.4-.6 1.4-1.4 0-.7-.6-1.3-1.4-1.3Zm.1-.9h2.4l7.3-12.7h-2.3l-7.4 12.7ZM49.2 169.8l-.1.5c0 .2-.2.4-.3.5l-.5.4h-.7l-.8-.1c-.2-.1-.5-.2-.6-.4l-.4-.6a3 3 0 0 1-.1-.8c0-.6 0-1 .3-1.5.2-.4.4-.9.8-1.2l.5-.4.5-.3.4-.2.3-.2.8 1.3s-.3 0-.4.2l-.6.3-.4.5a1 1 0 0 0-.2.6c.4 0 .7.1 1 .4.4.2.5.5.5 1Zm4.9 0c0 .1 0 .3-.2.5 0 .2-.1.4-.3.5l-.5.4h-.6l-.8-.1-.7-.4-.4-.6a3 3 0 0 1 0-.8c0-.6 0-1 .2-1.5.2-.4.4-.9.8-1.2l.5-.4.6-.3.4-.2.2-.2.9 1.3c-.1 0-.3 0-.5.2l-.6.3-.4.5a1 1 0 0 0-.2.6c.5 0 .8.1 1 .4.4.2.6.5.6 1Zm162.7 36v-.6l.4-.5.5-.3.7-.2.8.2.6.4.4.7.1.8c0 .5-.1 1-.3 1.4a3 3 0 0 1-.8 1.2 3.4 3.4 0 0 1-1 .7c-.2 0-.3.2-.5.3h-.2l-.9-1.1.5-.3.6-.3.4-.5.2-.6c-.4 0-.7-.1-1-.4-.4-.1-.5-.5-.5-1Zm-4.8 0 .1-.6c0-.2.2-.3.3-.5l.5-.3.7-.2.8.2.6.4.4.7.1.8c0 .5 0 1-.3 1.4a3 3 0 0 1-.8 1.2l-.5.4c-.1.1-.3.3-.5.3s-.3.2-.4.3h-.3l-.8-1.1.4-.3.6-.3.4-.5.2-.6c-.4 0-.7-.1-1-.4-.4-.1-.5-.5-.5-1Z" fill="#fff"/></svg>